<?xml version="1.0" encoding="utf-8"?>
<!-- Generator: Adobe Illustrator 27.5.0, SVG Export Plug-In . SVG Version: 6.00 Build 0)  -->
<svg version="1.1" id="Layer_1" xmlns="http://www.w3.org/2000/svg" xmlns:xlink="http://www.w3.org/1999/xlink" x="0px" y="0px"
	 viewBox="0 0 600 372" style="enable-background:new 0 0 600 372;" xml:space="preserve">
<style type="text/css">
	.st0{fill:#FFFFFF;}
	.st1{fill:#8E0C3A;}
</style>
<g>
	<polygon class="st0" points="400.26,-0.47 400.26,21.75 200.26,21.75 200.26,43.97 0.26,43.97 0.26,243.97 200.26,243.97 
		200.26,221.75 400.26,221.75 400.26,199.53 600.26,199.53 600.26,-0.47 	"/>
	<g>
		<path class="st1" d="M83.51,75.94l-39.38,73.67H61.5l6.65-13.04h30.16l6.64,13.04h17.78L83.51,75.94z M92.12,124.34H74.34
			l8.89-17.37L92.12,124.34z"/>
		<path class="st1" d="M184.4,131.16c-5.85,4.26-10.81,6.72-18.83,6.72c-11.75,0-20.61-7.66-20.61-17.81v-0.17
			c0-10.06,8.86-17.64,20.61-17.64c6.5,0,12.15,1.99,18.31,6.47l0.31,0.22l10.85-10.02l-0.43-0.34c-8.07-6.36-16.73-9.07-28.95-9.07
			c-21.87,0-38.36,13.13-38.36,30.54v0.17c0,17.31,16.22,30.37,37.74,30.37c12.67,0,21.39-3.04,30.11-10.5l0.42-0.36l-10.89-8.8
			L184.4,131.16z"/>
		<polygon class="st1" points="258.86,113.54 230.31,113.54 230.31,90.53 213.38,90.53 213.38,149.61 230.31,149.61 230.31,126.27 
			258.86,126.27 258.86,149.61 275.79,149.61 275.79,90.53 258.86,90.53 		"/>
		<rect x="299.25" y="90.53" class="st1" width="16.93" height="59.08"/>
		<polygon class="st1" points="356.46,126.02 390.73,126.02 390.73,113.71 356.46,113.71 356.46,102.85 395.4,102.85 395.4,90.53 
			339.65,90.53 339.65,149.61 395.92,149.61 395.92,137.3 356.46,137.3 		"/>
		<polygon class="st1" points="462.24,90.53 443.53,130.84 424.83,90.53 406.12,90.53 435.85,149.77 435.98,150.03 450.67,150.03 
			480.53,90.53 		"/>
		<path class="st1" d="M517.36,75.86l-38.92,73.07l-0.37,0.69h17.36l6.65-13.04h30.17l6.65,13.04h17.78L517.36,75.86z
			 M517.16,106.97l8.89,17.37h-17.79L517.16,106.97z"/>
	</g>
	<g>
		<g>
			<path class="st0" d="M200.08,299.58h15.11c3.85,0,6.88,0.86,8.8,2.42c1.49,1.22,2.26,2.7,2.26,4.54v0.08
				c0,3.29-2.31,5.05-4.81,6.1c3.95,1.1,6.69,2.93,6.69,6.65v0.08c0,4.89-4.95,7.51-12.46,7.51h-15.59V299.58z M213.99,311.12
				c3.8,0,6.35-1.21,6.35-3.72v-0.08c0-2.15-2.12-3.48-5.92-3.48h-8.52v7.28H213.99z M215.72,322.7c4.04,0,6.5-1.29,6.5-3.75v-0.08
				c0-2.31-2.26-3.68-6.93-3.68h-9.39v7.51L215.72,322.7L215.72,322.7z"/>
			<path class="st0" d="M251.56,299.38h5.48l14.82,27.58h-6.25l-3.42-6.61h-15.92l-3.46,6.61h-6.06L251.56,299.38z M260.03,316.08
				l-5.82-10.95l-5.77,10.95H260.03z"/>
			<path class="st0" d="M282.44,299.58h5.48l18.04,18.93v-18.93h5.83v27.38h-4.96l-18.57-19.48v19.48h-5.82V299.58z"/>
			<path class="st0" d="M325.26,299.58h5.92v13.77l16.02-13.77h7.26l-14,11.77l14.62,15.61h-7.17l-11.49-12.32l-5.25,4.38v7.94
				h-5.92v-27.38H325.26z"/>
			<path class="st0" d="M365.28,299.58h5.92v27.38h-5.92V299.58z"/>
			<path class="st0" d="M385,299.58h5.48l18.05,18.93v-18.93h5.82v27.38h-4.96l-18.57-19.48v19.48H385V299.58z"/>
			<path class="st0" d="M426.32,313.35v-0.08c0-7.67,7.22-14.16,17.37-14.16c5.87,0,9.47,1.33,12.94,3.72l-3.75,3.64
				c-2.6-1.8-5.14-2.94-9.43-2.94c-6.21,0-10.93,4.42-10.93,9.66v0.08c0,5.64,4.57,9.78,11.45,9.78c3.18,0,6.06-0.83,8.13-2.07
				v-5.13h-8.61v-4.18h14.34v11.5c-3.32,2.31-8.09,4.26-14.05,4.26C433.25,327.43,426.32,321.32,426.32,313.35z"/>
			<path class="st0" d="M489.58,299.58h25.06v4.38H495.5v7.47h16.98v4.38H495.5v11.15h-5.92V299.58z"/>
			<path class="st0" d="M524.16,313.35v-0.08c0-7.71,7.32-14.16,17.66-14.16c10.34,0,17.55,6.38,17.55,14.08v0.08
				c0,7.71-7.31,14.16-17.66,14.16C531.38,327.43,524.16,321.05,524.16,313.35z M553.18,313.35v-0.08c0-5.32-4.77-9.74-11.45-9.74
				s-11.36,4.35-11.36,9.66v0.08c0,5.32,4.76,9.74,11.46,9.74C548.51,323.01,553.18,318.67,553.18,313.35z"/>
			<path class="st0" d="M571.36,299.58h15.01c4.24,0,7.56,1.01,9.72,2.74c1.78,1.48,2.79,3.52,2.79,5.91v0.08
				c0,4.5-3.32,7.2-8.03,8.29l9.1,10.37h-6.97l-8.28-9.55h-0.1h-7.31v9.55h-5.92L571.36,299.58L571.36,299.58z M585.93,313.15
				c4.23,0,6.93-1.8,6.93-4.58v-0.08c0-2.94-2.6-4.54-6.98-4.54h-8.61v9.19L585.93,313.15L585.93,313.15z"/>
			<path class="st0" d="M198.59,357.28v-0.08c0-7.66,7.21-14.16,17.37-14.16c5.87,0,9.48,1.33,12.94,3.71l-3.75,3.64
				c-2.6-1.8-5.15-2.94-9.43-2.94c-6.21,0-10.92,4.42-10.92,9.66v0.08c0,5.64,4.57,9.78,11.45,9.78c3.17,0,6.06-0.82,8.13-2.07
				v-5.12h-8.61v-4.19h14.34v11.5c-3.32,2.31-8.08,4.26-14.05,4.26C205.52,371.35,198.59,365.26,198.59,357.28z"/>
			<path class="st0" d="M241.12,357.28v-0.08c0-7.7,7.31-14.16,17.66-14.16s17.56,6.38,17.56,14.08v0.08
				c0,7.71-7.31,14.16-17.66,14.16C248.33,371.35,241.12,364.98,241.12,357.28z M270.13,357.28v-0.08c0-5.32-4.76-9.74-11.45-9.74
				s-11.35,4.35-11.35,9.66v0.08c0,5.32,4.76,9.74,11.45,9.74C265.46,366.94,270.13,362.59,270.13,357.28z"/>
			<path class="st0" d="M286.82,357.28v-0.08c0-7.7,7.32-14.16,17.65-14.16c10.35,0,17.57,6.38,17.57,14.08v0.08
				c0,7.71-7.31,14.16-17.66,14.16C294.04,371.35,286.82,364.98,286.82,357.28z M315.83,357.28v-0.08c0-5.32-4.76-9.74-11.45-9.74
				s-11.35,4.35-11.35,9.66v0.08c0,5.32,4.76,9.74,11.44,9.74C311.16,366.94,315.83,362.59,315.83,357.28z"/>
			<path class="st0" d="M334.01,343.51h12.55c10.59,0,17.9,5.91,17.9,13.61v0.08c0,7.71-7.31,13.69-17.9,13.69h-12.55V343.51z
				 M346.56,366.51c7.07,0,11.69-3.87,11.69-9.23v-0.08c0-5.35-4.62-9.31-11.69-9.31h-6.64v18.62H346.56z"/>
		</g>
		<g>
			<path class="st0" d="M374.71,344.96h-3.44v-1.56h8.8v1.56h-3.44v8.02h-1.92L374.71,344.96L374.71,344.96z"/>
			<path class="st0" d="M382.08,343.4h2.03l3.3,4.53l3.3-4.53h2.03v9.58h-1.91v-6.87l-3.42,4.51h-0.06l-3.39-4.49v6.84h-1.87
				L382.08,343.4L382.08,343.4z"/>
		</g>
	</g>
</g>
</svg>
