<?xml version="1.0" encoding="utf-8"?>
<!-- Generator: Adobe Illustrator 27.6.1, SVG Export Plug-In . SVG Version: 6.00 Build 0)  -->
<svg version="1.1" id="Layer_1" xmlns="http://www.w3.org/2000/svg" xmlns:xlink="http://www.w3.org/1999/xlink" x="0px" y="0px"
	 viewBox="0 0 1024 283.36" style="enable-background:new 0 0 1024 283.36;" xml:space="preserve">
<style type="text/css">
	.st0{fill:#8E0C3A;}
	.st1{fill:#FFFFFF;}
	.st2{fill:#CCECFC;}
	.st3{fill:#8ED6F6;}
	.st4{fill:#00A9E0;}
</style>
<g>
	<g>
		<polygon class="st0" points="392.35,21.8 392.35,43.59 196.17,43.59 196.17,65.39 0,65.39 0,261.57 196.17,261.57 196.17,239.77 
			392.35,239.77 392.35,217.97 588.52,217.97 588.52,21.8 		"/>
		<g>
			<path class="st1" d="M81.65,96.75l-38.62,72.26h17.03l6.52-12.79h29.59l6.52,12.79h17.44L81.65,96.75z M90.1,144.22H72.66
				l8.72-17.03L90.1,144.22z"/>
			<path class="st1" d="M180.61,150.91c-5.74,4.18-10.6,6.6-18.47,6.6c-11.52,0-20.22-7.51-20.22-17.47v-0.16
				c0-9.87,8.69-17.3,20.22-17.3c6.37,0,11.91,1.96,17.96,6.35l0.3,0.22l10.65-9.82l-0.42-0.33c-7.92-6.24-16.41-8.9-28.39-8.9
				c-21.46,0-37.63,12.88-37.63,29.96v0.16c0,16.98,15.92,29.79,37.02,29.79c12.43,0,20.98-2.98,29.53-10.3l0.42-0.36l-10.68-8.63
				L180.61,150.91z"/>
			<polygon class="st1" points="253.66,133.62 225.64,133.62 225.64,111.06 209.04,111.06 209.04,169.01 225.64,169.01 
				225.64,146.11 253.66,146.11 253.66,169.01 270.25,169.01 270.25,111.06 253.66,111.06 			"/>
			<rect x="293.27" y="111.06" class="st1" width="16.61" height="57.95"/>
			<polygon class="st1" points="349.39,145.87 383,145.87 383,133.79 349.39,133.79 349.39,123.14 387.58,123.14 387.58,111.06 
				332.89,111.06 332.89,169.01 388.09,169.01 388.09,156.93 349.39,156.93 			"/>
			<polygon class="st1" points="453.13,111.06 434.79,150.6 416.44,111.06 398.1,111.06 427.25,169.16 427.38,169.42 441.79,169.42 
				471.08,111.06 			"/>
			<path class="st1" d="M507.2,96.66l-38.18,71.67l-0.36,0.67h17.02l6.52-12.79h29.59l6.52,12.79h17.44L507.2,96.66z M507,127.19
				l8.73,17.03h-17.45L507,127.19z"/>
		</g>
		<g>
			<path class="st0" d="M631.8,142.57h14.82c3.78,0,6.75,0.83,8.64,2.34c1.47,1.17,2.22,2.61,2.22,4.38v0.07
				c0,3.18-2.26,4.88-4.72,5.9c3.87,1.06,6.56,2.83,6.56,6.42v0.08c0,4.72-4.86,7.25-12.22,7.25H631.8V142.57z M645.44,153.71
				c3.73,0,6.23-1.17,6.23-3.59v-0.07c0-2.08-2.08-3.36-5.81-3.36h-8.35v7.02H645.44z M647.13,164.89c3.96,0,6.37-1.25,6.37-3.62
				v-0.07c0-2.23-2.22-3.55-6.8-3.55h-9.2v7.25H647.13z"/>
			<path class="st0" d="M682.29,142.38h5.38l14.54,26.63h-6.13l-3.35-6.38H677.1l-3.4,6.38h-5.95L682.29,142.38z M690.59,158.51
				l-5.71-10.57l-5.67,10.57H690.59z"/>
			<path class="st0" d="M712.58,142.57h5.38l17.69,18.28v-18.28h5.71v26.44h-4.86l-18.21-18.81v18.81h-5.71V142.57z"/>
			<path class="st0" d="M754.57,142.57h5.8v13.29l15.71-13.29h7.13l-13.73,11.37l14.34,15.07h-7.03l-11.27-11.89l-5.15,4.22v7.67
				h-5.8V142.57z"/>
			<path class="st0" d="M793.83,142.57h5.81v26.44h-5.81V142.57z"/>
			<path class="st0" d="M813.18,142.57h5.38l17.7,18.28v-18.28h5.71v26.44h-4.86l-18.22-18.81v18.81h-5.71V142.57z"/>
			<path class="st0" d="M853.71,155.86v-0.07c0-7.41,7.08-13.67,17.04-13.67c5.76,0,9.29,1.29,12.69,3.59l-3.68,3.51
				c-2.55-1.74-5.05-2.83-9.25-2.83c-6.09,0-10.71,4.27-10.71,9.33v0.08c0,5.44,4.48,9.44,11.23,9.44c3.12,0,5.95-0.8,7.98-2v-4.95
				h-8.45v-4.04h14.06v11.1c-3.26,2.23-7.93,4.12-13.78,4.12C860.5,169.46,853.71,163.57,853.71,155.86z"/>
			<path class="st0" d="M915.76,142.57h24.59v4.23h-18.78v7.21h16.66v4.23h-16.66v10.77h-5.81V142.57z"/>
			<path class="st0" d="M949.68,155.86v-0.07c0-7.44,7.18-13.67,17.32-13.67c10.15,0,17.22,6.16,17.22,13.6v0.08
				c0,7.44-7.17,13.67-17.32,13.67C956.76,169.46,949.68,163.3,949.68,155.86z M978.13,155.86v-0.07c0-5.14-4.67-9.41-11.23-9.41
				c-6.56,0-11.14,4.19-11.14,9.33v0.08c0,5.13,4.68,9.4,11.23,9.4C973.56,165.2,978.13,161,978.13,155.86z"/>
			<path class="st0" d="M995.97,142.57h14.72c4.15,0,7.41,0.98,9.53,2.64c1.75,1.43,2.73,3.4,2.73,5.7v0.07
				c0,4.34-3.25,6.95-7.88,8.01l8.92,10.01h-6.84l-8.12-9.22h-0.1h-7.17v9.22h-5.8V142.57z M1010.26,155.68
				c4.15,0,6.8-1.74,6.8-4.42v-0.07c0-2.83-2.55-4.38-6.84-4.38h-8.45v8.88H1010.26z"/>
			<path class="st0" d="M630.33,201.16v-0.08c0-7.4,7.08-13.67,17.04-13.67c5.76,0,9.3,1.28,12.69,3.59l-3.68,3.51
				c-2.55-1.73-5.05-2.83-9.25-2.83c-6.09,0-10.71,4.27-10.71,9.33v0.07c0,5.44,4.48,9.44,11.23,9.44c3.12,0,5.95-0.79,7.98-2v-4.94
				h-8.45v-4.05h14.06v11.11c-3.26,2.23-7.93,4.11-13.78,4.11C637.13,214.76,630.33,208.87,630.33,201.16z"/>
			<path class="st0" d="M672.05,201.16v-0.08c0-7.44,7.17-13.67,17.32-13.67c10.15,0,17.22,6.16,17.22,13.59v0.07
				c0,7.44-7.17,13.67-17.32,13.67C679.12,214.76,672.05,208.6,672.05,201.16z M700.5,201.16v-0.08c0-5.14-4.67-9.4-11.23-9.4
				c-6.56,0-11.14,4.2-11.14,9.33v0.07c0,5.14,4.67,9.41,11.23,9.41C695.92,210.49,700.5,206.3,700.5,201.16z"/>
			<path class="st0" d="M716.87,201.16v-0.08c0-7.44,7.17-13.67,17.32-13.67c10.15,0,17.23,6.16,17.23,13.59v0.07
				c0,7.44-7.17,13.67-17.32,13.67C723.95,214.76,716.87,208.6,716.87,201.16z M745.33,201.16v-0.08c0-5.14-4.67-9.4-11.23-9.4
				c-6.56,0-11.14,4.2-11.14,9.33v0.07c0,5.14,4.67,9.41,11.23,9.41C740.75,210.49,745.33,206.3,745.33,201.16z"/>
			<path class="st0" d="M763.16,187.87h12.31c10.39,0,17.56,5.7,17.56,13.14v0.07c0,7.44-7.17,13.22-17.56,13.22h-12.31V187.87z
				 M775.48,210.07c6.94,0,11.47-3.74,11.47-8.91v-0.08c0-5.17-4.53-8.99-11.47-8.99h-6.51v17.98H775.48z"/>
		</g>
		<path class="st2" d="M196.17,21.8H0V0h196.17V21.8z M392.35,283.36h196.17v-21.8H392.35V283.36z"/>
		<path class="st3" d="M392.35,261.57v21.8H196.17v-21.8H392.35z M392.35,21.8V0H196.17v21.8H392.35z M196.17,43.59V21.8H0v21.8
			H196.17z M392.35,239.77v21.8h196.17v-21.8H392.35z"/>
		<path class="st4" d="M196.17,261.57v21.8H0v-21.8H196.17z M588.52,21.8V0H392.35v21.8H588.52z M392.35,21.8H196.17v21.8h196.17
			V21.8z M196.17,261.57h196.17v-21.8H196.17V261.57z M196.17,43.59H0v21.8h196.17V43.59z M392.35,239.77h196.17v-21.79H392.35
			V239.77z"/>
	</g>
	<g>
		<path class="st0" d="M803.08,189.27h-3.37v-1.5h8.63v1.5h-3.37v7.74h-1.88V189.27z"/>
		<path class="st0" d="M810.31,187.77h1.99l3.24,4.37l3.24-4.37h1.99v9.24h-1.87v-6.63l-3.36,4.36h-0.06l-3.33-4.33v6.6h-1.84
			V187.77z"/>
	</g>
</g>
</svg>
